<?xml version="1.0" encoding="utf-8"?>
<!-- Generator: Adobe Illustrator 17.0.0, SVG Export Plug-In . SVG Version: 6.00 Build 0)  -->
<!DOCTYPE svg PUBLIC "-//W3C//DTD SVG 1.1//EN" "http://www.w3.org/Graphics/SVG/1.1/DTD/svg11.dtd">
<svg version="1.1" id="Layer_1" xmlns="http://www.w3.org/2000/svg" xmlns:xlink="http://www.w3.org/1999/xlink" x="0px" y="0px"
	 width="152.667px" height="100px" viewBox="0 0 152.667 100" enable-background="new 0 0 152.667 100" xml:space="preserve">
<g>
	<path fill="#FFFFFF" d="M4.583,70.535L63,5.579v52.906L30.894,94.23c-6.545,7.266-17.74,7.851-25.006,1.309
		C-1.378,88.996-1.962,77.801,4.583,70.535z"/>
	<path fill="#FFFFFF" d="M75.538,100.087c-9.777,0-17.703-7.928-17.703-17.706V17.616c0-9.778,7.926-17.703,17.703-17.703
		c9.776-0.002,17.704,7.925,17.704,17.703v64.766C93.242,92.16,85.314,100.086,75.538,100.087z"/>
	<path fill="#FFFFFF" d="M62.583,70.535L121,5.579v52.906L88.894,94.23c-6.545,7.266-17.74,7.851-25.006,1.309
		C56.622,88.996,56.038,77.801,62.583,70.535z"/>
	<path fill="#FFFFFF" d="M134.177,100.087c-9.777,0-17.703-7.928-17.703-17.706V17.616c0-9.778,7.926-17.703,17.703-17.703
		c9.776-0.002,17.703,7.925,17.703,17.703v64.766C151.881,92.16,143.954,100.086,134.177,100.087z"/>
</g>
</svg>
