<?xml version="1.0" encoding="utf-8"?>
<!-- Generator: Adobe Illustrator 17.0.0, SVG Export Plug-In . SVG Version: 6.00 Build 0)  -->
<!DOCTYPE svg PUBLIC "-//W3C//DTD SVG 1.1//EN" "http://www.w3.org/Graphics/SVG/1.1/DTD/svg11.dtd">
<svg version="1.1" id="Layer_1" xmlns="http://www.w3.org/2000/svg" xmlns:xlink="http://www.w3.org/1999/xlink" x="0px" y="0px"
	 width="527.834px" height="150px" viewBox="0 0 527.834 150" enable-background="new 0 0 527.834 150" xml:space="preserve">
<g>
	<g>
		<g>
			<path fill="#0C9DD8" d="M231.92,12.087c-0.188-5.851,4.775-11.454,10.994-11.925c7.09-0.967,13.83,5.013,13.717,11.701
				c0.053,9.672-0.01,19.343,0.016,29.014c7.447-5.744,17.586-7.76,26.926-5.897c12.75,2.159,23.088,11.619,27.926,22.752
				c8.432,18.66,3.582,43.298-14.344,55.447c-11.949,8.127-31.34,9.047-41.193-2.583c-2.064,3.033-4.615,6.217-8.547,7.054
				c-7.498,2.323-15.744-3.952-15.484-11.313C231.895,74.918,231.92,43.495,231.92,12.087z M268.139,57.496
				c-12.898,5.214-14.527,22.657-7.574,32.86c5.299,8.198,19.152,8.824,25.299,1.215c6.428-7.997,6.49-19.969,0.932-28.415
				C283.002,57.319,274.756,55.361,268.139,57.496z"/>
		</g>
		<path fill="#0C9DD8" d="M334.133,0.834c7.699-3.137,16.682,3.043,16.732,10.805c0.16,31.16,0.01,62.347,0.059,93.521
			c0.211,5.578-3.555,11.335-9.502,12.586c-7.426,2.12-15.607-4.117-15.385-11.372c0.012-31.504,0.023-63.008,0-94.512
			C325.915,7.05,329.458,2.508,334.133,0.834z"/>
		<path fill="#0C9DD8" d="M372.393,0.35c8.658-1.792,17.611,5.485,17.141,13.859c0.621,9.024-9.85,16.618-18.842,13.588
			c-7.963-1.946-12.748-10.829-9.828-18.094C362.542,4.88,367.145,1.223,372.393,0.35z"/>
		<path fill="#0C9DD8" d="M409.346,12.145c6.221-10.885,22.053-15.296,33.545-9.542c5.885,2.997,6.381,10.911,3.273,15.924
			c-2.699,3.693-7.912,4.104-12.242,4.082c-5.123,3.042-2.984,9.353-3.383,14.093c6.469-0.177,14.328-0.706,18.645,4.884
			c2.949-4.458,8.795-7.325,14.305-5.651c4.391,0.78,7.725,4.117,9.252,7.961c5.027,12.15,9.928,24.357,14.988,36.494
			c4.94-11.052,9.592-22.222,14.43-33.32c1.703-3.681,3.893-7.419,7.426-9.789c5.994-4.023,15.672-0.813,17.588,5.968
			c1.84,4.848-0.549,9.777-2.389,14.261c-11.68,25.923-23.434,51.825-35.123,77.751c-1.57,3.478-3.111,6.994-5.328,10.154
			c-4.525,6.689-16.654,5.828-20.545-1.061c-2.588-3.974-1.32-8.939,0.459-12.962c3.346-7.477,6.893-14.885,10.488-22.268
			c-7.65-17.809-15.676-35.479-23.396-53.265c-0.723-1.629-1.147-3.35-1.52-5.06c-0.223,2.534-1.432,4.977-3.842,6.251
			c-4.65,2.747-10.264,2.005-15.449,2.041c0,15.781,0,31.551,0.012,47.332c0.051,6.204-5.869,11.889-12.473,11.7
			c-6.617,0.165-12.527-5.555-12.426-11.784c0.012-15.721,0.012-31.443,0.012-47.166c-4.416-0.155-9.463-0.19-12.961-3.138
			c-3.533-3.787-3.67-9.672-1.555-14.119c2.75-4.908,9.353-5.297,14.516-5.284C405.663,28.387,404.807,19.576,409.346,12.145z"/>
		<g>
			<path fill="#0C9DD8" d="M171.186,35.169c12.672-2.572,26.629,0.755,36.27,9.047c18.756,16.488,18.879,47.792,0.596,64.635
				c-14.639,13.364-39.801,13.883-55.123,1.285c-16.658-13.871-19.506-39.206-8.508-57.027
				C150.09,43.873,160.127,37.186,171.186,35.169z M174.868,57.272c-7.535,2.183-11.605,9.813-12.078,16.855
				c-0.598,6.816,0.98,14.46,6.58,19.201c6.604,5.686,18.297,4.471,23.26-2.654c5.582-7.867,5.621-19.012,0.512-27.093
				C189.645,57.649,181.497,55.479,174.868,57.272z"/>
		</g>
		<path fill="#0C9DD8" d="M372.381,35.722c7.303-1.709,14.789,4.246,14.814,11.265c0.109,19.414,0.012,38.84,0.049,58.254
			c0.336,5.483-3.445,11.123-9.23,12.409c-7.086,2.205-15.221-3.362-15.484-10.369c-0.049-19.991,0.023-39.972-0.037-59.963
			C362.233,41.88,366.774,36.678,372.381,35.722z"/>
	</g>
	<g>
		<path fill="#0C9DD8" d="M3.654,93.926L53,38.808v44.893l-27.021,30.331c-5.554,6.166-15.054,6.662-21.219,1.111
			C-1.405,109.591-1.9,100.091,3.654,93.926z"/>
		<path fill="#0C9DD8" d="M64.083,119.002c-8.296,0-15.021-6.727-15.021-15.025V49.022C49.061,40.725,55.787,34,64.083,34
			c8.295-0.001,15.022,6.725,15.022,15.021v54.956C79.105,112.275,72.377,119.001,64.083,119.002z"/>
		<path fill="#0C9DD8" d="M52.761,93.926L102,38.808v44.893l-26.914,30.331c-5.554,6.166-15.053,6.662-21.218,1.111
			C47.703,109.591,47.207,100.091,52.761,93.926z"/>
		<path fill="#0C9DD8" d="M113.839,119.002c-8.296,0-15.021-6.727-15.021-15.025V49.022c0-8.297,6.725-15.021,15.021-15.021
			c8.297-0.001,15.022,6.725,15.022,15.021v54.956C128.862,112.275,122.136,119.001,113.839,119.002z"/>
	</g>
</g>
</svg>
