<?xml version="1.0" encoding="utf-8"?>
<!-- Generator: Adobe Illustrator 17.0.0, SVG Export Plug-In . SVG Version: 6.00 Build 0)  -->
<!DOCTYPE svg PUBLIC "-//W3C//DTD SVG 1.1//EN" "http://www.w3.org/Graphics/SVG/1.1/DTD/svg11.dtd">
<svg version="1.1" id="Layer_1" xmlns="http://www.w3.org/2000/svg" xmlns:xlink="http://www.w3.org/1999/xlink" x="0px" y="0px"
	 width="80px" height="80px" viewBox="0 0 80 80" enable-background="new 0 0 80 80" xml:space="preserve">
<path fill-rule="evenodd" clip-rule="evenodd" fill="#0B7AB8" d="M60.374,30.268c0.014,0.033,0.02,0.068,0.031,0.101
	c0.023,0.068,0.048,0.135,0.062,0.207c0.021,0.107,0.033,0.216,0.033,0.327v25.634c0,2.736-2.207,4.962-4.92,4.962H24.42
	c-2.713,0-4.92-2.225-4.92-4.962V30.904c0-0.111,0.011-0.22,0.033-0.327c0.014-0.072,0.039-0.139,0.062-0.207
	c0.011-0.033,0.018-0.069,0.031-0.101c0.031-0.075,0.072-0.144,0.113-0.213c0.014-0.023,0.023-0.049,0.038-0.071
	c0.06-0.09,0.128-0.174,0.204-0.25l3.279-3.307c0.307-0.31,0.725-0.484,1.16-0.484h6.064C31.581,21.67,35.425,18.5,40,18.5
	c4.575,0,8.42,3.17,9.516,7.442h6.064c0.435,0,0.852,0.174,1.16,0.484l3.279,3.307c0.076,0.076,0.144,0.16,0.204,0.25
	c0.015,0.022,0.024,0.048,0.038,0.071C60.302,30.124,60.343,30.193,60.374,30.268z M24.42,58.192h31.16
	c0.904,0,1.64-0.742,1.64-1.654V32.558H22.78v23.981C22.78,57.45,23.516,58.192,24.42,58.192z M40,21.808
	c-2.747,0-5.101,1.713-6.077,4.135h12.154C45.101,23.521,42.747,21.808,40,21.808z M31.8,35.865c0.906,0,1.64,0.741,1.64,1.654
	c0,3.648,2.943,6.615,6.56,6.615s6.56-2.968,6.56-6.615c0-0.913,0.734-1.654,1.64-1.654s1.64,0.741,1.64,1.654
	c0,5.472-4.414,9.923-9.84,9.923c-5.426,0-9.84-4.451-9.84-9.923C30.16,36.606,30.894,35.865,31.8,35.865z"/>
</svg>
