<?xml version="1.0" encoding="utf-8"?>
<!-- Generator: Adobe Illustrator 17.0.0, SVG Export Plug-In . SVG Version: 6.00 Build 0)  -->
<!DOCTYPE svg PUBLIC "-//W3C//DTD SVG 1.1//EN" "http://www.w3.org/Graphics/SVG/1.1/DTD/svg11.dtd">
<svg version="1.1" id="Layer_1" xmlns="http://www.w3.org/2000/svg" xmlns:xlink="http://www.w3.org/1999/xlink" x="0px" y="0px"
	 width="80px" height="80px" viewBox="0 0 80 80" enable-background="new 0 0 80 80" xml:space="preserve">
<path fill-rule="evenodd" clip-rule="evenodd" fill="#0B7AB8" d="M54.958,42.17c-0.143,0.489-0.596,0.829-1.104,0.829
	c-0.11,0-0.22-0.016-0.325-0.047c-0.61-0.18-0.959-0.821-0.78-1.43c1.709-5.838-1.646-11.98-7.48-13.692
	c-0.296-0.088-0.541-0.286-0.688-0.556c-0.147-0.27-0.18-0.582-0.093-0.877c0.174-0.591,0.834-0.951,1.426-0.781
	c3.414,1.002,6.234,3.276,7.943,6.407C55.567,35.152,55.958,38.756,54.958,42.17z M50.509,41.116
	c-0.143,0.488-0.596,0.828-1.104,0.828c-0.11,0-0.22-0.016-0.326-0.048c-0.609-0.179-0.959-0.821-0.78-1.431
	c0.496-1.694,0.302-3.484-0.547-5.038c-0.85-1.555-2.25-2.685-3.943-3.181c-0.293-0.086-0.537-0.282-0.686-0.553
	c-0.148-0.27-0.182-0.582-0.096-0.878c0.176-0.593,0.834-0.957,1.428-0.781C49.177,31.42,51.892,36.391,50.509,41.116z
	 M46.952,44.057c0.587-0.031,1.17,0.255,1.479,0.808l5.899,10.508c0.33,0.587,0.248,1.292-0.148,1.783
	c-0.72,1.108-1.709,2.065-2.941,2.757c-2.777,1.564-6.06,1.385-8.594-0.177c-0.777-0.408-1.579-0.937-2.393-1.561l-2.426-2.134
	c-2.322-2.303-4.635-5.335-6.646-8.879c-0.014-0.027-0.031-0.057-0.047-0.083c-0.017-0.031-0.031-0.057-0.048-0.086
	c-3.372-6.071-6.839-15.244-6.574-19.456c-0.015-2.978,1.54-5.879,4.317-7.442c1.231-0.69,2.563-1.04,3.882-1.079
	c0.626-0.084,1.27,0.212,1.6,0.801l5.898,10.507c0.307,0.548,0.253,1.203-0.077,1.687l0.001,0.003
	c-0.725,1.15-1.738,2.141-3.008,2.856c-0.854,0.48-1.757,0.795-2.671,0.957c0.593,1.353,3.079,5.843,3.843,7.222
	c0.779,1.368,1.598,2.664,2.444,3.874c0.613-0.695,1.354-1.302,2.208-1.781c1.27-0.715,2.644-1.066,3.999-1.09L46.952,44.057z"/>
</svg>
