<?xml version="1.0" encoding="utf-8"?>
<!-- Generator: Adobe Illustrator 17.0.0, SVG Export Plug-In . SVG Version: 6.00 Build 0)  -->
<!DOCTYPE svg PUBLIC "-//W3C//DTD SVG 1.1//EN" "http://www.w3.org/Graphics/SVG/1.1/DTD/svg11.dtd">
<svg version="1.1" id="Layer_1" xmlns="http://www.w3.org/2000/svg" xmlns:xlink="http://www.w3.org/1999/xlink" x="0px" y="0px"
	 width="80px" height="80px" viewBox="0 0 80 80" enable-background="new 0 0 80 80" xml:space="preserve">
<path fill-rule="evenodd" clip-rule="evenodd" fill="#0B7AB8" d="M54.494,28.617h-4.935v-8.942c0-1.747-1.414-3.175-3.146-3.175
	H25.643c-1.731,0-3.146,1.427-3.146,3.175v40.648c0,1.748,1.415,3.176,3.146,3.176h20.771c1.731,0,3.146-1.428,3.146-3.176V50.118
	h4.935c1.66,0,3.009-1.353,3.009-3.016v-15.47C57.503,29.971,56.154,28.617,54.494,28.617z M32.705,18.789h6.645
	c0.21,0,0.382,0.172,0.382,0.384c0,0.211-0.172,0.384-0.382,0.384h-6.645c-0.21,0-0.38-0.173-0.38-0.384
	C32.325,18.96,32.495,18.789,32.705,18.789z M36.027,61.913c-0.868,0-1.573-0.711-1.573-1.589c0-0.875,0.704-1.587,1.573-1.587
	c0.869,0,1.575,0.711,1.575,1.587C37.602,61.202,36.896,61.913,36.027,61.913z M47.37,57.625H24.685v-36.09H47.37v7.082H34.402
	c-1.658,0-3.007,1.354-3.007,3.016v15.472c0,1.661,1.349,3.013,3.007,3.013h1.817v5.184l5.138-5.184h6.013V57.625z M56.172,47.105
	c0,0.922-0.753,1.671-1.678,1.671H40.807l-3.256,3.285v-3.285h-3.15c-0.924,0-1.676-0.75-1.676-1.671V31.633
	c0-0.923,0.751-1.673,1.676-1.673h20.092c0.926,0,1.678,0.751,1.678,1.673V47.105z M52.843,34.754c0,0.459-0.346,0.83-0.77,0.83
	H36.865c-0.424,0-0.771-0.371-0.771-0.83c0-0.457,0.347-0.829,0.771-0.829h15.209C52.497,33.924,52.843,34.297,52.843,34.754z
	 M52.843,39.255c0,0.46-0.346,0.831-0.77,0.831H36.865c-0.424,0-0.771-0.372-0.771-0.831c0-0.456,0.347-0.828,0.771-0.828h15.209
	C52.497,38.427,52.843,38.799,52.843,39.255z M52.843,43.756c0,0.459-0.346,0.832-0.77,0.832H36.865
	c-0.424,0-0.771-0.373-0.771-0.832c0-0.457,0.347-0.827,0.771-0.827h15.209C52.497,42.928,52.843,43.299,52.843,43.756z"/>
</svg>
